<svg xmlns="http://www.w3.org/2000/svg" viewBox="0 0 1200 675" role="img" aria-labelledby="title desc">
  <title id="title">Chat Control Encrypter preview</title>
  <desc id="desc">Editorial cover with an encryption terminal and connected message nodes.</desc>
  <defs>
    <pattern id="grid" width="48" height="48" patternUnits="userSpaceOnUse">
      <path d="M48 0H0V48" fill="none" stroke="#f1ecdf" stroke-opacity=".07"/>
    </pattern>
    <linearGradient id="wash" x1="0" y1="0" x2="1" y2="1">
      <stop stop-color="#e05a3f" stop-opacity=".34"/>
      <stop offset=".62" stop-color="#0b0b11" stop-opacity="0"/>
    </linearGradient>
  </defs>
  <rect width="1200" height="675" fill="#0b0b11"/>
  <rect width="1200" height="675" fill="url(#grid)"/>
  <circle cx="106" cy="92" r="370" fill="url(#wash)"/>
  <g transform="translate(76 70)">
    <text fill="#9a9487" font-family="monospace" font-size="16" letter-spacing="4">PROJECT / 01</text>
    <text y="86" fill="#f1ecdf" font-family="Georgia, serif" font-size="67" font-weight="700">Chat Control</text>
    <text y="144" fill="#e05a3f" font-family="monospace" font-size="28" font-weight="700" letter-spacing="5">ENCRYPTER / DECRYPTER</text>
  </g>
  <g transform="translate(680 78)">
    <rect width="440" height="302" rx="8" fill="#111118" stroke="#f1ecdf" stroke-opacity=".2"/>
    <path d="M0 48H440" stroke="#f1ecdf" stroke-opacity=".13"/>
    <circle cx="24" cy="24" r="5" fill="#e05a3f"/>
    <circle cx="44" cy="24" r="5" fill="#f0bf43"/>
    <circle cx="64" cy="24" r="5" fill="#2dd0a3"/>
    <g fill="none" stroke-linecap="round" stroke-width="9">
      <path d="M30 86H206" stroke="#f1ecdf" stroke-opacity=".72"/>
      <path d="M30 122H352" stroke="#5aa1b8" stroke-opacity=".78"/>
      <path d="M30 158H282" stroke="#f1ecdf" stroke-opacity=".3"/>
      <path d="M30 214H114" stroke="#e05a3f"/>
      <path d="M134 214H316" stroke="#2dd0a3" stroke-opacity=".75"/>
      <path d="M30 250H388" stroke="#f1ecdf" stroke-opacity=".2"/>
    </g>
  </g>
  <g fill="none" stroke="#f1ecdf" stroke-opacity=".28" stroke-width="2">
    <path d="M90 492H313L406 430H611"/>
    <path d="M313 492L422 558H670"/>
  </g>
  <g fill="#0b0b11" stroke="#e05a3f" stroke-width="3">
    <circle cx="90" cy="492" r="18"/>
    <circle cx="313" cy="492" r="18"/>
    <circle cx="406" cy="430" r="18"/>
    <circle cx="422" cy="558" r="18"/>
  </g>
  <text x="78" y="632" fill="#9a9487" font-family="monospace" font-size="16" letter-spacing="3">PYTHON · PRIVACY TOOL · OPEN SOURCE</text>
</svg>
