<svg xmlns="http://www.w3.org/2000/svg" viewBox="0 0 1200 675" role="img" aria-labelledby="title desc">
  <title id="title">Half Sword Enhancer preview</title>
  <desc id="desc">Editorial cover with a sword silhouette and injector interface.</desc>
  <defs>
    <pattern id="grid" width="48" height="48" patternUnits="userSpaceOnUse">
      <path d="M48 0H0V48" fill="none" stroke="#f1ecdf" stroke-opacity=".07"/>
    </pattern>
    <radialGradient id="glow">
      <stop stop-color="#f0bf43" stop-opacity=".36"/>
      <stop offset="1" stop-color="#f0bf43" stop-opacity="0"/>
    </radialGradient>
  </defs>
  <rect width="1200" height="675" fill="#0b0b11"/>
  <rect width="1200" height="675" fill="url(#grid)"/>
  <circle cx="982" cy="138" r="430" fill="url(#glow)"/>
  <g transform="translate(76 70)">
    <text fill="#9a9487" font-family="monospace" font-size="16" letter-spacing="4">PROJECT / 02</text>
    <text y="86" fill="#f1ecdf" font-family="Georgia, serif" font-size="67" font-weight="700">Half Sword</text>
    <text y="144" fill="#f0bf43" font-family="monospace" font-size="28" font-weight="700" letter-spacing="7">ENHANCER</text>
  </g>
  <g transform="translate(250 285) rotate(-42)">
    <path d="M0 20H410L498 0 410-20H0Z" fill="#f1ecdf" fill-opacity=".1" stroke="#f1ecdf" stroke-opacity=".65" stroke-width="3"/>
    <path d="M136-42V42M116-42H156M116 42H156" stroke="#f0bf43" stroke-width="8"/>
    <path d="M-64 0H0" stroke="#f1ecdf" stroke-width="18" stroke-linecap="round"/>
  </g>
  <g transform="translate(740 280)">
    <rect width="370" height="235" rx="8" fill="#111118" stroke="#f1ecdf" stroke-opacity=".2"/>
    <text x="28" y="44" fill="#9a9487" font-family="monospace" font-size="15" letter-spacing="3">INJECTOR STATUS</text>
    <circle cx="324" cy="38" r="7" fill="#2dd0a3"/>
    <path d="M28 68H342" stroke="#f1ecdf" stroke-opacity=".14"/>
    <text x="28" y="112" fill="#f1ecdf" font-family="monospace" font-size="20">HalfSword.exe</text>
    <rect x="28" y="140" width="314" height="48" rx="3" fill="#f0bf43"/>
    <text x="118" y="171" fill="#0b0b11" font-family="monospace" font-size="17" font-weight="700" letter-spacing="3">ATTACH</text>
  </g>
  <text x="78" y="632" fill="#9a9487" font-family="monospace" font-size="16" letter-spacing="3">C# · INJECTOR · GAME TOOLING</text>
</svg>
